<svg width="20" height="20" viewBox="0 0 20 20" fill="none" xmlns="http://www.w3.org/2000/svg">
<path d="M0.976013 19.9994C0.78284 19.9994 0.593997 19.9422 0.433368 19.8349C0.27274 19.7276 0.147543 19.575 0.0736146 19.3966C-0.000314095 19.2181 -0.0196536 19.0217 0.0180424 18.8323C0.0557383 18.6428 0.148776 18.4688 0.285388 18.3322L18.3323 0.285334C18.5154 0.102169 18.7639 -0.000732422 19.0229 -0.000732422C19.2819 -0.000732422 19.5303 0.102169 19.7135 0.285334C19.8967 0.468499 19.9996 0.716924 19.9996 0.975959C19.9996 1.23499 19.8967 1.48342 19.7135 1.66658L1.66664 19.7135C1.57603 19.8043 1.46837 19.8763 1.34985 19.9253C1.23133 19.9744 1.10429 19.9996 0.976013 19.9994Z" fill="#171717"/>
<path d="M19.0231 19.9994C18.8948 19.9996 18.7678 19.9744 18.6492 19.9253C18.5307 19.8763 18.4231 19.8043 18.3325 19.7135L0.285578 1.66658C0.102413 1.48342 -0.000488281 1.23499 -0.000488281 0.975959C-0.000488281 0.716924 0.102413 0.468499 0.285578 0.285334C0.468743 0.102169 0.717168 -0.000732422 0.976203 -0.000732422C1.23524 -0.000732422 1.48366 0.102169 1.66683 0.285334L19.7137 18.3322C19.8503 18.4688 19.9433 18.6428 19.981 18.8323C20.0187 19.0217 19.9994 19.2181 19.9255 19.3966C19.8515 19.575 19.7263 19.7276 19.5657 19.8349C19.4051 19.9422 19.2162 19.9994 19.0231 19.9994Z" fill="#171717"/>
</svg>
