<svg width="20" height="20" viewBox="0 0 20 20" fill="none" xmlns="http://www.w3.org/2000/svg">
<path d="M18.7228 5.08213C18.4383 4.41375 18.0282 3.80808 17.5153 3.29901C17.002 2.78842 16.3968 2.38267 15.7327 2.10381C15.044 1.8135 14.3053 1.6649 13.5596 1.66664C12.5134 1.66664 11.4926 1.95737 10.6055 2.50652C10.3933 2.63788 10.1917 2.78217 10.0007 2.93937C9.80973 2.78217 9.60812 2.63788 9.39591 2.50652C8.50885 1.95737 7.48809 1.66664 6.44187 1.66664C5.6885 1.66664 4.95848 1.81308 4.26878 2.10381C3.60242 2.38376 3.00185 2.78647 2.48617 3.29901C1.9726 3.80751 1.56235 4.41332 1.27866 5.08213C0.983681 5.77772 0.833008 6.51637 0.833008 7.27657C0.833008 7.99369 0.977315 8.74096 1.26381 9.50116C1.50361 10.1364 1.8474 10.7954 2.28669 11.4609C2.98275 12.5139 3.93984 13.6122 5.12825 14.7256C7.09761 16.5712 9.04788 17.8461 9.13064 17.8977L9.63359 18.2251C9.85642 18.3694 10.1429 18.3694 10.3657 18.2251L10.8687 17.8977C10.9515 17.8439 12.8996 16.5712 14.8711 14.7256C16.0595 13.6122 17.0166 12.5139 17.7126 11.4609C18.1519 10.7954 18.4978 10.1364 18.7355 9.50116C19.022 8.74096 19.1663 7.99369 19.1663 7.27657C19.1684 6.51637 19.0178 5.77772 18.7228 5.08213V5.08213Z" stroke="#4F70E2" stroke-width="1.6"/>
</svg>
