<svg width="18" height="16" viewBox="0 0 18 16" fill="currentColor" xmlns="http://www.w3.org/2000/svg">
<path d="M4.50098 0.312521C3.35763 0.313811 2.26147 0.768577 1.453 1.57705C0.644532 2.38552 0.189767 3.48167 0.188477 4.62502C0.188477 9.99924 7.48091 14.6804 9.00098 15.5972C10.521 14.6804 17.8135 9.99924 17.8135 4.62502C17.8133 3.62827 17.4679 2.66234 16.836 1.89148C16.2041 1.12061 15.3247 0.592375 14.3474 0.396585C13.3701 0.200796 12.3551 0.349534 11.475 0.817513C10.5949 1.28549 9.90412 2.04382 9.51998 2.96358C9.4772 3.06595 9.4051 3.15338 9.31275 3.21488C9.2204 3.27637 9.11193 3.30918 9.00098 3.30918C8.89003 3.30918 8.78156 3.27637 8.68921 3.21488C8.59686 3.15338 8.52476 3.06595 8.48198 2.96358C8.15501 2.1775 7.60226 1.50604 6.89364 1.03415C6.18501 0.562252 5.35235 0.311121 4.50098 0.312521Z"/>
</svg>
