<svg width="24" height="24" viewBox="0 0 24 24" fill="none" xmlns="http://www.w3.org/2000/svg">
<path d="M7.50098 4.31251C6.35763 4.3138 5.26147 4.76856 4.453 5.57703C3.64453 6.3855 3.18977 7.48166 3.18848 8.62501C3.18848 13.9992 10.4809 18.6804 12.001 19.5972C13.521 18.6804 20.8135 13.9992 20.8135 8.62501C20.8133 7.62825 20.4679 6.66233 19.836 5.89146C19.2041 5.12059 18.3247 4.59236 17.3474 4.39657C16.3701 4.20078 15.3551 4.34952 14.475 4.8175C13.5949 5.28548 12.9041 6.04381 12.52 6.96357C12.4772 7.06594 12.4051 7.15337 12.3127 7.21486C12.2204 7.27636 12.1119 7.30917 12.001 7.30917C11.89 7.30917 11.7816 7.27636 11.6892 7.21486C11.5969 7.15337 11.5248 7.06594 11.482 6.96357C11.155 6.17748 10.6023 5.50603 9.89364 5.03413C9.18501 4.56224 8.35235 4.31111 7.50098 4.31251Z"/>
</svg>
