<svg width="24" height="25" viewBox="0 0 24 25" fill="none" xmlns="http://www.w3.org/2000/svg">
<g clip-path="url(#clip0_5645_6153)">
<path d="M16.8873 5.03513C14.7055 2.4264 12.5525 0.731083 12.4619 0.660211C11.971 0.276177 11.2497 0.625712 11.2497 1.25081V4.54873C11.2497 6.25187 8.99626 6.85138 8.15118 5.37089C7.89019 4.91369 7.25196 4.86194 6.91977 5.26735C4.64951 8.03756 2.625 11.5295 2.625 15.1253C2.625 20.2945 6.83048 24.5 11.9997 24.5C17.1689 24.5 21.3743 20.2945 21.3743 15.1253C21.3743 11.4359 19.2426 7.85119 16.8873 5.03513ZM11.9997 23C7.65751 23 4.12495 19.4675 4.12495 15.1253C4.12495 12.1001 5.85471 9.10777 7.51314 6.9344C9.47784 8.66946 12.7496 7.33615 12.7496 4.54873V2.88763C16.0754 5.9261 19.8744 10.6287 19.8744 15.1253C19.8744 19.4675 16.3418 23 11.9997 23Z" fill="#4F70E2"/>
<path d="M15.0854 11.1584C14.7585 10.9042 14.2874 10.963 14.033 11.29L8.78315 18.0397C8.39747 18.5357 8.75882 19.2502 9.37464 19.2502C9.59813 19.2502 9.81928 19.1507 9.96717 18.9606L15.217 12.2109C15.4713 11.8839 15.4124 11.4127 15.0854 11.1584Z" fill="#4F70E2"/>
<path d="M14.624 19.2502C15.4524 19.2502 16.1239 18.5787 16.1239 17.7503C16.1239 16.9219 15.4524 16.2503 14.624 16.2503C13.7956 16.2503 13.124 16.9219 13.124 17.7503C13.124 18.5787 13.7956 19.2502 14.624 19.2502Z" fill="#4F70E2"/>
<path d="M9.37495 14.0004C10.2033 14.0004 10.8749 13.3288 10.8749 12.5004C10.8749 11.672 10.2033 11.0005 9.37495 11.0005C8.54655 11.0005 7.875 11.672 7.875 12.5004C7.875 13.3288 8.54655 14.0004 9.37495 14.0004Z" fill="#4F70E2"/>
</g>
<defs>
<clipPath id="clip0_5645_6153">
<rect width="24" height="24" fill="white" transform="translate(0 0.5)"/>
</clipPath>
</defs>
</svg>
