<svg width="18" height="21" viewBox="0 0 18 21" fill="none" xmlns="http://www.w3.org/2000/svg">
<path d="M15.6165 3.98837C14.1514 1.75581 11.7328 0.5 9.01182 0.5C6.31415 0.5 3.89555 1.75581 2.38392 3.98837C0.872291 6.17442 0.523453 8.96512 1.45369 11.407C1.7095 12.0581 2.10485 12.7326 2.61648 13.3372L8.5002 20.2674C8.63973 20.407 8.77927 20.5 8.98857 20.5C9.19787 20.5 9.33741 20.407 9.47694 20.2674L15.3839 13.3372C15.8955 12.7326 16.3141 12.0814 16.5467 11.407C17.4769 8.96512 17.1281 6.17442 15.6165 3.98837ZM9.01182 12.2209C7.01182 12.2209 5.36066 10.5698 5.36066 8.56977C5.36066 6.56977 7.01182 4.9186 9.01182 4.9186C11.0118 4.9186 12.663 6.56977 12.663 8.56977C12.663 10.5698 11.0351 12.2209 9.01182 12.2209Z" fill="#4F70E2"/>
</svg>
