<svg width="16" height="21" viewBox="0 0 16 21" fill="none" xmlns="http://www.w3.org/2000/svg">
<path d="M13.255 8.77351C13.0742 8.59266 12.8933 8.38922 12.7125 8.23098V5.20188C12.7125 2.60228 10.6102 0.5 8.01059 0.5C5.41099 0.5 3.30871 2.60228 3.30871 5.20188V8.14056C3.30871 8.16316 3.30871 8.18577 3.30871 8.20837C0.41524 10.808 0.166583 15.2612 2.74358 18.1547C5.32057 21.0481 9.7964 21.2968 12.6899 18.7198C15.5833 16.1428 15.832 11.667 13.255 8.77351ZM8.62093 14.9899C8.62093 15.329 8.34967 15.6003 8.01059 15.6003C7.67151 15.6003 7.40025 15.329 7.40025 14.9899V13.498C7.40025 13.1589 7.67151 12.8877 8.01059 12.8877C8.34967 12.8877 8.62093 13.1589 8.62093 13.498V14.9899ZM11.4692 7.34938C9.32169 6.1287 6.69949 6.1287 4.55199 7.34938V5.22449C4.55199 3.32565 6.08915 1.76589 8.01059 1.76589C9.93203 1.76589 11.4692 3.30305 11.4692 5.22449V7.34938Z" fill="#D3D3D3"/>
</svg>
