<svg width="24" height="24" viewBox="0 0 24 24" fill="none" xmlns="http://www.w3.org/2000/svg">
<path fill-rule="evenodd" clip-rule="evenodd" d="M15.4406 0.501845L23.4866 8.54777C23.8083 8.84997 23.99 9.26014 23.9996 9.7048C24.0095 10.1639 23.8266 10.6159 23.4973 10.9449L10.9569 23.4862C10.6547 23.8079 10.2445 23.9897 9.79985 23.9993C9.78799 23.9996 9.77581 23.9999 9.76395 23.9999C9.31731 23.9999 8.88029 23.8175 8.55943 23.4969L6.83501 21.7725C6.53567 21.4732 6.50285 20.9994 6.75814 20.6616C7.47365 19.7148 7.36987 18.3421 6.51701 17.4683C5.6845 16.6149 4.31489 16.5201 3.33083 17.2469C2.99356 17.4963 2.524 17.4618 2.22719 17.1644L0.513507 15.4507C0.19208 15.1486 0.0100153 14.7384 0.000405817 14.2937C-0.00981307 13.8349 0.173377 13.3826 0.502725 13.0533L13.0541 0.501845C13.723 -0.166977 14.7712 -0.167586 15.4406 0.501845ZM10.707 5.24444L11.9137 4.05316L13.4365 5.59565L12.2298 6.78693L10.707 5.24444ZM18.4337 10.5906L17.2422 11.7978L18.7666 13.3025L19.9581 12.0953L18.4337 10.5906ZM13.6465 8.17587L14.8456 6.97675L17.0504 9.18151L15.8512 10.3806L13.6465 8.17587Z" fill="currentColor"/>
</svg>
