<svg width="21" height="12" viewBox="0 0 21 12" fill="none" xmlns="http://www.w3.org/2000/svg">
<path d="M10.2753 11.9404H11.5301C11.5301 11.9404 11.9095 11.8984 12.1024 11.6897C12.281 11.4981 12.2744 11.1384 12.2744 11.1384C12.2744 11.1384 12.2495 9.45435 13.0318 9.20627C13.8023 8.96213 14.792 10.8339 15.8407 11.5545C16.6335 12.0992 17.236 11.9798 17.236 11.9798L20.041 11.9404C20.041 11.9404 21.5085 11.8498 20.8128 10.6961C20.7564 10.6016 20.4072 9.84288 18.7271 8.28351C16.9682 6.65064 17.2045 6.91579 19.323 4.09239C20.6133 2.37289 21.1292 1.32281 20.9677 0.873902C20.8141 0.445995 19.8651 0.558879 19.8651 0.558879L16.7097 0.577255C16.7097 0.577255 16.476 0.545753 16.3014 0.649448C16.1321 0.75183 16.0232 0.988098 16.0232 0.988098C16.0232 0.988098 15.5231 2.31907 14.8563 3.45053C13.4505 5.83815 12.8874 5.96415 12.6577 5.81583C12.1234 5.47062 12.2573 4.4271 12.2573 3.6868C12.2573 1.37269 12.6078 0.40793 11.5735 0.158536C11.2296 0.0758427 10.9775 0.0207136 10.0994 0.0115255C8.97321 -0.000287926 8.01895 0.0154632 7.47947 0.279295C7.11982 0.455183 6.84286 0.84765 7.01219 0.869965C7.22089 0.897529 7.69343 0.997286 7.94413 1.33856C8.26834 1.77828 8.25653 2.76798 8.25653 2.76798C8.25653 2.76798 8.44292 5.49162 7.82206 5.83027C7.39547 6.0626 6.81136 5.58875 5.55783 3.42165C4.91597 2.31251 4.43031 1.08523 4.43031 1.08523C4.43031 1.08523 4.33711 0.856838 4.17041 0.734767C3.96827 0.586443 3.68475 0.53919 3.68475 0.53919L0.684156 0.557566C0.684156 0.557566 0.233935 0.570692 0.0685481 0.766269C-0.0784628 0.940845 0.0567347 1.3005 0.0567347 1.3005C0.0567347 1.3005 2.40628 6.79634 5.06561 9.56723C7.50572 12.1071 10.2753 11.9404 10.2753 11.9404Z" fill="#2787F5"/>
</svg>
