<svg width="74" height="75" viewBox="0 0 74 75" fill="none" xmlns="http://www.w3.org/2000/svg">
<g filter="url(#filter0_d_925_18225)">
<path d="M36.8472 60C32.0161 60 27.287 58.7224 23.1689 56.3107L22.194 55.7365L12.0372 58.3635L14.7437 48.5875L14.1035 47.5826C11.4115 43.3621 10 38.4957 10 33.4856C10 18.8862 22.0485 7 36.8617 7C44.0355 7 50.7728 9.75623 55.8367 14.7663C60.9005 19.7763 64.0145 26.4228 63.9999 33.5C63.9999 48.1138 51.6459 60 36.8472 60Z" fill="#05940D"/>
<path d="M58.7138 12.0094C52.9152 6.19688 45.1929 3 36.9862 3C20.0469 3 6.26295 16.7839 6.26295 33.7232C6.26295 39.1344 7.67455 44.421 10.3594 49.0848L6 65L22.2888 60.7237C26.7728 63.1732 31.8241 64.4603 36.9723 64.4603H36.9862C53.9116 64.4603 68 50.6763 68 33.7371C68 25.5304 64.5125 17.8219 58.7138 12.0094ZM36.9862 59.2844C32.3915 59.2844 27.8937 58.0527 23.9772 55.7277L23.05 55.1741L13.3902 57.7067L15.9643 48.2821L15.3554 47.3134C12.7951 43.2446 11.4527 38.5531 11.4527 33.7232C11.4527 19.6487 22.9116 8.18973 37 8.18973C43.8228 8.18973 50.2304 10.8469 55.0464 15.6768C59.8625 20.5067 62.8241 26.9143 62.8103 33.7371C62.8103 47.8254 51.0607 59.2844 36.9862 59.2844ZM50.9915 40.1585C50.2304 39.771 46.4522 37.9165 45.7464 37.6674C45.0406 37.4045 44.5286 37.2799 44.0165 38.0549C43.5045 38.8299 42.0375 40.546 41.5808 41.0719C41.1379 41.5839 40.6813 41.6531 39.9201 41.2656C35.4085 39.0098 32.4469 37.2384 29.4714 32.1317C28.6826 30.7754 30.2603 30.8723 31.7272 27.9384C31.9763 27.4263 31.8518 26.9835 31.658 26.596C31.4643 26.2085 29.9281 22.4304 29.2915 20.8942C28.6687 19.3996 28.0321 19.6071 27.5616 19.5795C27.1188 19.5518 26.6067 19.5518 26.0946 19.5518C25.5826 19.5518 24.7522 19.7455 24.0464 20.5067C23.3406 21.2817 21.3616 23.1362 21.3616 26.9143C21.3616 30.6924 24.1156 34.346 24.4893 34.858C24.8768 35.3701 29.9004 43.1201 37.6089 46.4554C42.4804 48.5589 44.3902 48.7388 46.8259 48.379C48.3067 48.1576 51.3652 46.5246 52.0018 44.7254C52.6384 42.9263 52.6384 41.3902 52.4446 41.0719C52.2647 40.7259 51.7527 40.5321 50.9915 40.1585Z" fill="white"/>
</g>
<defs>
<filter id="filter0_d_925_18225" x="-3" y="-2" width="80" height="80" filterUnits="userSpaceOnUse" color-interpolation-filters="sRGB">
<feFlood flood-opacity="0" result="BackgroundImageFix"/>
<feColorMatrix in="SourceAlpha" type="matrix" values="0 0 0 0 0 0 0 0 0 0 0 0 0 0 0 0 0 0 127 0" result="hardAlpha"/>
<feOffset dy="4"/>
<feGaussianBlur stdDeviation="3"/>
<feColorMatrix type="matrix" values="0 0 0 0 0 0 0 0 0 0 0 0 0 0 0 0 0 0 0.1 0"/>
<feBlend mode="normal" in2="BackgroundImageFix" result="effect1_dropShadow_925_18225"/>
<feBlend mode="normal" in="SourceGraphic" in2="effect1_dropShadow_925_18225" result="shape"/>
</filter>
</defs>
</svg>
