<svg width="24" height="24" viewBox="0 0 24 24" fill="none" xmlns="http://www.w3.org/2000/svg">
<path fill-rule="evenodd" clip-rule="evenodd" d="M20.5514 4.83928C18.466 2.7515 15.6927 1.60122 12.7382 1.59999C6.65004 1.59999 1.69519 6.5547 1.69275 12.6445C1.69193 14.5912 2.20047 16.4915 3.16709 18.1665L1.6001 23.89L7.45544 22.354C9.06882 23.2341 10.8852 23.6979 12.7337 23.6984H12.7383C18.8257 23.6984 23.7811 18.7433 23.7834 12.6533C23.7847 9.70188 22.6368 6.92692 20.5514 4.83928ZM12.7382 21.8331H12.7343C11.0871 21.8324 9.47152 21.3897 8.0618 20.5534L7.72672 20.3544L4.25207 21.2659L5.1795 17.8782L4.96115 17.5309C4.04215 16.0692 3.55687 14.3797 3.55768 12.6451C3.55959 7.58349 7.67801 3.46547 12.7418 3.46547C15.1939 3.46629 17.499 4.42243 19.2322 6.15771C20.9655 7.893 21.9194 10.1995 21.9186 12.6526C21.9165 17.7147 17.7983 21.8331 12.7382 21.8331ZM17.7738 14.9574C17.4979 14.8192 16.141 14.1517 15.8879 14.0595C15.6351 13.9674 15.4509 13.9215 15.2671 14.1977C15.0831 14.4739 14.5543 15.0956 14.3932 15.2797C14.2321 15.4639 14.0713 15.487 13.7952 15.3488C13.5192 15.2107 12.63 14.9192 11.5758 13.9789C10.7554 13.2471 10.2016 12.3434 10.0405 12.0672C9.87967 11.7908 10.0391 11.6558 10.1616 11.504C10.4603 11.133 10.7595 10.744 10.8515 10.5599C10.9436 10.3757 10.8974 10.2145 10.8283 10.0764C10.7595 9.93833 10.2075 8.5799 9.97762 8.02714C9.75342 7.48921 9.52608 7.56186 9.35656 7.55342C9.19576 7.5454 9.01168 7.54376 8.82761 7.54376C8.64368 7.54376 8.34464 7.61274 8.0916 7.88919C7.83868 8.1655 7.1258 8.83308 7.1258 10.1915C7.1258 11.5499 8.11472 12.8623 8.25268 13.0465C8.39063 13.2307 10.1988 16.0183 12.9673 17.2136C13.6257 17.4982 14.1397 17.6679 14.5406 17.7951C15.2018 18.0051 15.8033 17.9755 16.2789 17.9044C16.8092 17.8251 17.9116 17.2367 18.1418 16.5921C18.3717 15.9474 18.3717 15.3949 18.3026 15.2797C18.2338 15.1646 18.0497 15.0956 17.7738 14.9574Z" fill="#26AD5C"/>
</svg>
