<svg width="90" height="90" viewBox="0 0 90 90" fill="none" xmlns="http://www.w3.org/2000/svg">
<rect x="1" y="1" width="88" height="88" rx="44" stroke="#0888FD" stroke-width="2"/>
<path color="" d="M43.2397 32.68V40.8934C43.2397 41.5157 42.9924 42.1126 42.5524 42.5527C42.1123 42.9928 41.5154 43.24 40.893 43.24H32.6797C32.0573 43.24 31.4604 42.9928 31.0203 42.5527C30.5802 42.1126 30.333 41.5157 30.333 40.8934V32.68C30.333 32.0577 30.5802 31.4608 31.0203 31.0207C31.4604 30.5806 32.0573 30.3334 32.6797 30.3334H40.893C41.5154 30.3334 42.1123 30.5806 42.5524 31.0207C42.9924 31.4608 43.2397 32.0577 43.2397 32.68ZM57.3197 30.3334H49.1063C48.484 30.3334 47.8871 30.5806 47.447 31.0207C47.0069 31.4608 46.7597 32.0577 46.7597 32.68V40.8934C46.7597 41.5157 47.0069 42.1126 47.447 42.5527C47.8871 42.9928 48.484 43.24 49.1063 43.24H57.3197C57.9421 43.24 58.5389 42.9928 58.979 42.5527C59.4191 42.1126 59.6663 41.5157 59.6663 40.8934V32.68C59.6663 32.0577 59.4191 31.4608 58.979 31.0207C58.5389 30.5806 57.9421 30.3334 57.3197 30.3334ZM40.893 46.76H32.6797C32.0573 46.76 31.4604 47.0073 31.0203 47.4474C30.5802 47.8874 30.333 48.4843 30.333 49.1067V57.32C30.333 57.9424 30.5802 58.5393 31.0203 58.9794C31.4604 59.4195 32.0573 59.6667 32.6797 59.6667H40.893C41.5154 59.6667 42.1123 59.4195 42.5524 58.9794C42.9924 58.5393 43.2397 57.9424 43.2397 57.32V49.1067C43.2397 48.4843 42.9924 47.8874 42.5524 47.4474C42.1123 47.0073 41.5154 46.76 40.893 46.76ZM53.213 46.76C51.9367 46.76 50.689 47.1385 49.6277 47.8476C48.5665 48.5567 47.7393 49.5646 47.2509 50.7438C46.7625 51.923 46.6347 53.2205 46.8837 54.4724C47.1327 55.7242 47.7473 56.8741 48.6498 57.7766C49.5523 58.6791 50.7022 59.2937 51.954 59.5427C53.2059 59.7917 54.5034 59.6639 55.6826 59.1755C56.8618 58.687 57.8697 57.8599 58.5788 56.7987C59.2879 55.7374 59.6663 54.4897 59.6663 53.2134C59.6663 51.5018 58.9864 49.8604 57.7762 48.6502C56.566 47.4399 54.9245 46.76 53.213 46.76Z" fill="#0888FD"/>
</svg>
