<svg width="90" height="90" viewBox="0 0 90 90" fill="none" xmlns="http://www.w3.org/2000/svg">
<rect x="1" y="1" width="88" height="88" rx="44" stroke="#FC69FF" stroke-width="2"/>
<path color="" d="M46.8854 55.2731C34.8023 43.1902 46.8158 55.2034 34.7323 43.1201C34.3965 42.7842 33.8529 42.7842 33.517 43.1201L32.3017 44.3354C31.2965 45.3407 31.2965 46.9761 32.3017 47.9814L32.9094 48.5889L32.3017 49.1966C31.2965 50.202 31.2965 51.8374 32.3018 52.8426L37.163 57.7038C38.1683 58.709 39.8037 58.709 40.8089 57.7038L41.4165 57.0961L42.0242 57.7038C43.0295 58.709 44.6649 58.709 45.6701 57.7038L46.8854 56.4886C47.2213 56.1527 47.2213 55.609 46.8854 55.2731Z" fill="#FC69FF"/>
<path color="" d="M57.6947 42.0252L57.087 41.4176L57.6947 40.8099C58.6999 39.8047 58.6999 38.1691 57.6947 37.164L52.8335 32.3028C51.8282 31.2975 50.1928 31.2975 49.1875 32.3028L48.5798 32.9104L47.9722 32.3028C46.9669 31.2975 45.3315 31.2975 44.3263 32.3028L43.111 33.518C42.7751 33.854 42.7751 34.3976 43.111 34.7333L55.2641 46.8865C55.5999 47.2223 56.1436 47.2223 56.4794 46.8865L57.6947 45.6711C58.6999 44.6659 58.6999 43.0304 57.6947 42.0252Z" fill="#FC69FF"/>
<path color="" d="M58.9109 31.0875C57.9058 30.0822 56.2702 30.0822 55.2651 31.0874L54.6574 31.6951L58.3033 35.341L58.9109 34.7333C59.9162 33.7282 59.9162 32.0926 58.9109 31.0875Z" fill="#FC69FF"/>
<path color="" d="M31.694 54.6655L31.0865 55.2731C30.0812 56.2784 30.0812 57.9138 31.0865 58.919C32.0916 59.9243 33.7271 59.9243 34.7323 58.919L35.34 58.3113L31.694 54.6655Z" fill="#FC69FF"/>
<path color="" d="M46.1496 40.2024L40.2005 46.158L43.8464 49.8039L49.7956 43.8484L46.1496 40.2024Z" fill="#FC69FF"/>
</svg>
