<svg width="90" height="90" viewBox="0 0 90 90" fill="none" xmlns="http://www.w3.org/2000/svg">
<rect x="1" y="1" width="88" height="88" rx="44" stroke="#0888FD" stroke-width="2"/>
<path d="M43.24 32.6799V40.8933C43.24 41.5156 42.9928 42.1125 42.5527 42.5526C42.1126 42.9927 41.5157 43.2399 40.8933 43.2399H32.68C32.0576 43.2399 31.4608 42.9927 31.0207 42.5526C30.5806 42.1125 30.3333 41.5156 30.3333 40.8933V32.6799C30.3333 32.0575 30.5806 31.4607 31.0207 31.0206C31.4608 30.5805 32.0576 30.3333 32.68 30.3333H40.8933C41.5157 30.3333 42.1126 30.5805 42.5527 31.0206C42.9928 31.4607 43.24 32.0575 43.24 32.6799ZM57.32 30.3333H49.1067C48.4843 30.3333 47.8874 30.5805 47.4473 31.0206C47.0072 31.4607 46.76 32.0575 46.76 32.6799V40.8933C46.76 41.5156 47.0072 42.1125 47.4473 42.5526C47.8874 42.9927 48.4843 43.2399 49.1067 43.2399H57.32C57.9424 43.2399 58.5393 42.9927 58.9794 42.5526C59.4194 42.1125 59.6667 41.5156 59.6667 40.8933V32.6799C59.6667 32.0575 59.4194 31.4607 58.9794 31.0206C58.5393 30.5805 57.9424 30.3333 57.32 30.3333ZM40.8933 46.7599H32.68C32.0576 46.7599 31.4608 47.0072 31.0207 47.4472C30.5806 47.8873 30.3333 48.4842 30.3333 49.1066V57.3199C30.3333 57.9423 30.5806 58.5392 31.0207 58.9793C31.4608 59.4193 32.0576 59.6666 32.68 59.6666H40.8933C41.5157 59.6666 42.1126 59.4193 42.5527 58.9793C42.9928 58.5392 43.24 57.9423 43.24 57.3199V49.1066C43.24 48.4842 42.9928 47.8873 42.5527 47.4472C42.1126 47.0072 41.5157 46.7599 40.8933 46.7599ZM53.2133 46.7599C51.937 46.7599 50.6893 47.1384 49.6281 47.8475C48.5668 48.5566 47.7397 49.5645 47.2512 50.7437C46.7628 51.9229 46.635 53.2204 46.884 54.4722C47.133 55.7241 47.7476 56.8739 48.6501 57.7764C49.5527 58.679 50.7025 59.2936 51.9544 59.5426C53.2062 59.7916 54.5037 59.6638 55.6829 59.1754C56.8621 58.6869 57.87 57.8598 58.5791 56.7985C59.2882 55.7373 59.6667 54.4896 59.6667 53.2133C59.6667 51.5017 58.9868 49.8603 57.7765 48.6501C56.5663 47.4398 54.9249 46.7599 53.2133 46.7599Z" fill="#0888FD"/>
</svg>
