<svg width="90" height="90" viewBox="0 0 90 90" fill="none" xmlns="http://www.w3.org/2000/svg">
<rect x="1" y="1" width="88" height="88" rx="44" stroke="#6A52FF" stroke-width="2"/>
<path color="" d="M59.7224 41.0237C59.6998 40.9976 59.6806 40.9723 59.6538 40.9469L58.476 39.8103C59.4528 39.5887 60.5044 38.7703 60.5044 37.9307C60.5044 36.9526 59.1469 36.6055 57.9883 36.6055C56.7769 36.6055 56.6363 37.4355 56.6218 38.022L53.583 35.0923C52.9657 34.4811 51.7947 34.0002 50.9194 34.0002H45.0009H44.9995H39.0797C38.2051 34.0002 37.0348 34.4811 36.4167 35.0923L33.3786 38.022C33.3628 37.4355 33.2222 36.6055 32.0122 36.6055C30.8522 36.6055 29.4954 36.9526 29.4954 37.9307C29.4954 38.7703 30.5476 39.5887 31.5244 39.8103L30.3466 40.9469C30.3199 40.9723 30.3014 40.9976 30.278 41.0237C29.0179 42.1006 28.1948 44.0981 28.1948 45.5475V49.8546C28.1948 50.9 28.607 51.8487 29.2731 52.5559V54.2262C29.2731 55.203 30.0908 55.9994 31.0964 55.9994H33.3011C34.3067 55.9994 35.1237 55.2044 35.1237 54.2262V53.7989H44.9995H45.0009H54.8761V54.2262C54.8761 55.2044 55.6924 55.9994 56.6994 55.9994H58.9034C59.9097 55.9994 60.726 55.203 60.726 54.2262V52.5559C61.3927 51.8487 61.8043 50.9 61.8043 49.8546V45.5475C61.8057 44.0981 60.9825 42.1006 59.7224 41.0237ZM37.5328 36.3942C37.9602 36.0382 38.7072 35.7679 39.0797 35.7679H44.9995H45.0009H50.9208C51.2933 35.7679 52.0403 36.0382 52.4676 36.3942L56.4524 40.2561H45.0009H44.9995H33.5487L37.5328 36.3942ZM29.5619 44.8959C29.5619 43.8354 30.3919 42.9745 31.4167 42.9745C32.4409 42.9745 35.7877 44.9391 35.7877 45.9996C35.7877 47.0601 32.4409 46.8145 31.4167 46.8145C30.3919 46.8145 29.5619 45.9571 29.5619 44.8959ZM35.1244 51.9104H34.7711H34.4178L32.3222 51.9139C31.7405 51.7328 31.3303 51.5215 31.0401 51.2944C30.8934 51.1799 30.7809 51.0605 30.693 50.9419C30.6046 50.8218 30.5401 50.7038 30.4982 50.5859C30.2376 49.8491 30.7761 49.1721 30.7761 49.1721H34.3527L36.7371 51.9091L35.1244 51.9104ZM50.1429 51.9118H45.0009H44.9995H39.8575C38.7854 51.9118 37.9149 51.0413 37.9149 49.9699H44.9995H45.0009H52.0856C52.0856 51.0427 51.2151 51.9118 50.1429 51.9118ZM50.5943 48.6446H45.0009H44.9995H39.4062C38.24 48.6446 37.2934 47.2069 37.2934 45.4337H44.9995H45.0009H52.707C52.707 47.2075 51.7604 48.6446 50.5943 48.6446ZM59.5029 50.5872C59.4604 50.7052 59.3959 50.8232 59.3074 50.9426C59.2203 51.0612 59.1078 51.1806 58.9603 51.2951C58.6708 51.5222 58.2599 51.7348 57.6782 51.9145L55.5826 51.9111H55.2293H54.8761H53.262L55.6478 49.1742H59.2237C59.2237 49.1735 59.7629 49.8491 59.5029 50.5872ZM58.5837 46.8145C57.5602 46.8145 54.2134 47.0587 54.2134 45.9996C54.2134 44.9405 57.5602 42.9745 58.5837 42.9745C59.6085 42.9745 60.4386 43.8354 60.4386 44.8959C60.4386 45.9557 59.6085 46.8145 58.5837 46.8145Z" fill="#6A52FF"/>
</svg>
