<svg width="90" height="90" viewBox="0 0 90 90" fill="none" xmlns="http://www.w3.org/2000/svg">
<rect x="1" y="1" width="88" height="88" rx="44" stroke="#FD9B08" stroke-width="2"/>
<path color="" d="M32.1666 39.8667V55.6945C32.1666 56.8755 33.1244 57.8333 34.3055 57.8333H39.0111V56.1222H34.7333C34.2606 56.1222 33.8777 55.7394 33.8777 55.2667H39.0111V54.4111H33.8777V53.9833H39.0111V53.1278H33.8777V52.7H39.0111V51.8445H33.8777V51.4167H39.0111V50.5611H33.8777V50.1333H39.0111V49.2778H33.8777V48.85H39.0111V47.9945H33.8777V47.5667H39.0111V46.7111H33.8777V46.2833H39.0111V45.4278H33.8777V45H39.0111V44.1445H33.8777V43.7167H39.0111V42.8611H33.8777V42.4333H39.0111V41.5778H33.8777V41.15H39.0111V40.2944H33.8777C33.8777 39.8218 34.2606 39.4389 34.7333 39.4389H39.0111V37.7278H34.3055C33.1244 37.7278 32.1666 38.6856 32.1666 39.8667Z" fill="#FD9B08"/>
<path color="" d="M54.4113 50.989C54.1974 50.989 53.9891 51.0112 53.7863 51.0484L51.3574 46.2915L54.4113 32.1667L49.278 42.2195L44.1446 32.1667L47.1985 46.2915L44.7696 51.0484C44.5669 51.0112 44.3585 50.989 44.1446 50.989C42.2547 50.989 40.7224 52.5213 40.7224 54.4112C40.7224 56.3011 42.2547 57.8334 44.1446 57.8334C46.0346 57.8334 47.5669 56.3011 47.5669 54.4112C47.5669 53.4192 47.1421 52.5285 46.4679 51.9036L47.8201 49.1996C48.1294 48.5814 48.665 48.1511 49.278 47.9488C49.8914 48.1511 50.427 48.5814 50.7358 49.1996L52.088 51.9036C51.4139 52.5285 50.9891 53.4192 50.9891 54.4112C50.9891 56.3011 52.5214 57.8334 54.4113 57.8334C56.3012 57.8334 57.8335 56.3011 57.8335 54.4112C57.8335 52.5213 56.3012 50.989 54.4113 50.989V50.989ZM44.1446 56.5501C42.9635 56.5501 42.0057 55.5923 42.0057 54.4112C42.0057 53.2301 42.9635 52.2723 44.1446 52.2723C45.3257 52.2723 46.2835 53.2301 46.2835 54.4112C46.2835 55.5923 45.3257 56.5501 44.1446 56.5501ZM49.7057 45.8556V46.7112H48.8502V45.8556H49.7057ZM54.4113 56.5501C53.2302 56.5501 52.2724 55.5923 52.2724 54.4112C52.2724 53.2301 53.2302 52.2723 54.4113 52.2723C55.5924 52.2723 56.5502 53.2301 56.5502 54.4112C56.5502 55.5923 55.5924 56.5501 54.4113 56.5501Z" fill="#FD9B08"/>
</svg>
