<svg width="90" height="90" viewBox="0 0 90 90" fill="none" xmlns="http://www.w3.org/2000/svg">
<rect x="1" y="1" width="88" height="88" rx="44" stroke="#FF3998" stroke-width="2"/>
<path color="" d="M35.5394 39.0898C35.9777 39.2412 36.2465 39.6821 36.1807 40.141L34.2678 53.4686C35.7148 54.0358 37.145 54.4908 38.5649 54.8344C38.5649 50.0246 42.2707 46.9118 46.278 46.9118C48.3424 46.9118 50.2831 47.7117 51.7436 49.1638C53.0913 50.5051 53.8809 52.253 53.9949 54.1286C55.3678 53.6729 56.751 53.1128 58.1496 52.4483L56.5344 41.3276C56.4596 40.8158 56.0098 40.4297 55.487 40.4297H46.0769C45.5342 40.4297 45.1021 39.983 45.1101 39.4481C45.2223 32.0285 42.9928 29.8031 40.1455 28.542C39.8158 28.396 39.4484 28.6522 39.4693 29.0122L39.5761 30.8461C39.6161 31.3076 39.4092 31.7594 39.0302 32.0321C38.8714 32.1464 39.2742 31.9857 32.6268 34.3498C31.496 34.7529 31.0286 36.084 31.651 37.0498C32.371 38.1614 33.2996 38.3174 35.5394 39.0898V39.0898Z" fill="#FF3998"/>
<path color="" d="M28.5 53.8454V57.0153C28.5 57.239 28.6303 57.4414 28.8328 57.5363C38.5641 62.0968 51.4146 62.0967 61.1668 57.5356C61.3695 57.4408 61.5 57.2382 61.5 57.0143V53.8613C61.5 53.4293 61.0407 53.1524 60.6585 53.3538C50.2857 58.8176 40.3868 59.0955 29.3386 53.3364C28.9568 53.1374 28.5 53.4149 28.5 53.8454V53.8454Z" fill="#FF3998"/>
</svg>
