<svg width="90" height="90" viewBox="0 0 90 90" fill="none" xmlns="http://www.w3.org/2000/svg">
<rect x="1" y="1" width="88" height="88" rx="44" stroke="#1C08FD" stroke-width="2"/>
<path color="" d="M40.5235 43.5478C41.3011 43.5478 41.9314 42.9174 41.9314 42.1399C41.9314 41.3623 41.3011 40.7319 40.5235 40.7319C39.7459 40.7319 39.1155 41.3623 39.1155 42.1399C39.1155 42.9174 39.7459 43.5478 40.5235 43.5478Z" fill="#1C08FD"/>
<path color="" d="M49.4688 49.2622C50.2464 49.2622 50.8768 48.6318 50.8768 47.8542C50.8768 47.0766 50.2464 46.4463 49.4688 46.4463C48.6913 46.4463 48.0609 47.0766 48.0609 47.8542C48.0609 48.6318 48.6913 49.2622 49.4688 49.2622Z" fill="#1C08FD"/>
<path color="" d="M61.076 46.8603L60.5653 46.1633C60.0131 45.4041 59.9993 44.3757 60.5446 43.6027L61.0415 42.8988C61.8007 41.8221 61.4487 40.3245 60.2823 39.6964L59.5231 39.2892C58.6949 38.8475 58.2394 37.9227 58.3982 36.991L58.5431 36.1421C58.7639 34.8446 57.7908 33.6437 56.4726 33.5885L55.6099 33.554C54.6713 33.5126 53.8569 32.8776 53.5946 31.9735L53.3531 31.1453C52.9873 29.8754 51.5932 29.2197 50.3785 29.7443L49.5848 30.0824C48.7221 30.4551 47.7144 30.2343 47.0864 29.5303L46.5135 28.8885C45.637 27.9084 44.098 27.9153 43.2284 28.9161L42.6624 29.5648C42.0413 30.2757 41.0406 30.5103 40.1709 30.1515L39.3704 29.8202C38.1488 29.3164 36.7684 29.9996 36.4165 31.2695L36.1887 32.1046C35.9402 33.0156 35.1397 33.6644 34.201 33.7127L33.3383 33.761C32.0201 33.8369 31.0677 35.0516 31.3093 36.3491L31.468 37.198C31.6405 38.1228 31.1988 39.0546 30.3775 39.5101L29.6253 39.9311C28.4727 40.5729 28.1414 42.0775 28.9213 43.1403L29.432 43.8374C29.9841 44.5966 29.9979 45.6249 29.4527 46.3979L28.9558 47.1019C28.1966 48.1785 28.5486 49.6762 29.715 50.3042L30.4742 50.7114C31.3024 51.1531 31.7579 52.0779 31.5991 53.0097L31.4542 53.8586C31.2333 55.1561 32.2065 56.357 33.5247 56.4122L34.3874 56.4467C35.326 56.4881 36.1404 57.123 36.4027 58.0272L36.6442 58.8554C37.01 60.1253 38.4041 60.7809 39.6188 60.2564L40.4125 59.9182C41.2752 59.5455 42.2828 59.7664 42.9109 60.4703L43.4837 61.1122C44.3671 62.0922 45.9062 62.0853 46.7689 61.0846L47.3348 60.4358C47.956 59.725 48.9567 59.4903 49.8263 59.8492L50.6269 60.1805C51.8485 60.6843 53.2288 60.001 53.5808 58.7311L53.8086 57.896C54.057 56.985 54.8576 56.3363 55.7962 56.2879L56.6589 56.2396C57.9772 56.1637 58.9296 54.949 58.688 53.6515L58.5293 52.8026C58.3567 51.8778 58.7985 50.9461 59.6197 50.4906L60.372 50.0696C61.5246 49.4346 61.8559 47.9301 61.076 46.8603ZM37.1204 42.1396C37.1204 40.2624 38.6388 38.744 40.516 38.744C42.3933 38.744 43.9116 40.2624 43.9116 42.1396C43.9116 44.0168 42.3933 45.5352 40.516 45.5352C38.6388 45.5352 37.1204 44.0099 37.1204 42.1396ZM41.1717 50.8978C40.8818 51.2498 40.3573 51.2981 40.0053 51.0082C39.6533 50.7183 39.605 50.1938 39.8949 49.8418L48.8049 39.1098C49.0948 38.7578 49.6193 38.7095 49.9713 38.9994C50.3232 39.2892 50.3716 39.8137 50.0817 40.1657L41.1717 50.8978ZM49.4674 51.2498C47.5902 51.2498 46.0718 49.7314 46.0718 47.8542C46.0718 45.9769 47.5902 44.4585 49.4674 44.4585C51.3447 44.4585 52.8631 45.9769 52.8631 47.8542C52.8631 49.7314 51.3447 51.2498 49.4674 51.2498Z" fill="#1C08FD"/>
</svg>
