<svg width="90" height="90" viewBox="0 0 90 90" fill="none" xmlns="http://www.w3.org/2000/svg">
<rect x="1" y="1" width="88" height="88" rx="44" stroke="#E31B4B" stroke-width="2"/>
<path color="" d="M42.6732 30.5418C42.4739 30.5494 42.2848 30.6317 42.1433 30.7723C41.9959 30.921 41.913 31.1219 41.9128 31.3313V35.7478C41.9168 36.0534 41.8057 36.3492 41.6014 36.5765C41.3972 36.8038 41.1149 36.9459 40.8107 36.9745C40.6475 36.9865 40.4836 36.9648 40.3292 36.9106C40.1748 36.8564 40.0332 36.7709 39.9134 36.6595C39.7935 36.5481 39.6979 36.4131 39.6326 36.2631C39.5673 36.1131 39.5336 35.9512 39.5337 35.7876V31.3949C39.5341 31.2766 39.5109 31.1594 39.4654 31.0502C39.4199 30.941 39.353 30.842 39.2687 30.759C39.1962 30.6876 39.11 30.6316 39.0153 30.5943C38.9206 30.557 38.8194 30.5391 38.7177 30.5418C38.5184 30.5494 38.3292 30.6317 38.1878 30.7723C38.0403 30.921 37.9575 31.1219 37.9573 31.3313V35.7876C37.9573 36.1038 37.8317 36.407 37.6081 36.6306C37.3845 36.8542 37.0812 36.9798 36.765 36.9798C36.4488 36.9798 36.1456 36.8542 35.922 36.6306C35.6984 36.407 35.5728 36.1038 35.5728 35.7876V31.3949C35.5728 31.277 35.5493 31.1604 35.5038 31.0517C35.4584 30.943 35.3917 30.8444 35.3079 30.7617C35.2386 30.6917 35.156 30.6362 35.0651 30.5984C34.9741 30.5607 34.8765 30.5414 34.778 30.5418H34.7568C34.5572 30.5478 34.3675 30.6303 34.2269 30.7723C34.0785 30.9205 33.9947 31.1215 33.9938 31.3313V37.3878C33.9938 39.2133 35.4933 40.7128 36.7756 41.4414C37.0833 41.6149 37.3349 41.8726 37.5011 42.1843C37.6672 42.4959 37.7409 42.8485 37.7135 43.2006L36.614 57.0861C36.6008 57.402 36.6509 57.7174 36.7615 58.0136C36.8721 58.3098 37.0408 58.5809 37.2578 58.8109C37.4471 59.015 37.6764 59.1778 37.9315 59.2891C38.1865 59.4004 38.4619 59.4579 38.7402 59.4579C39.0185 59.4579 39.2938 59.4004 39.5489 59.2891C39.804 59.1778 40.0333 59.015 40.2225 58.8109C40.4411 58.5782 40.6107 58.304 40.7212 58.0045C40.8318 57.7051 40.8812 57.3864 40.8663 57.0676L39.7721 43.2748C39.7411 42.8869 39.8329 42.4991 40.0345 42.1662C40.2361 41.8334 40.5373 41.5724 40.8955 41.4202C41.3237 41.256 41.7247 41.0283 42.085 40.7446C42.5271 40.3047 42.8776 39.7815 43.1164 39.2054C43.3551 38.6292 43.4773 38.0115 43.476 37.3878V31.3975C43.4759 31.2797 43.4525 31.163 43.407 31.0544C43.3615 30.9457 43.2949 30.8471 43.211 30.7643C43.1406 30.6935 43.0568 30.6373 42.9644 30.5991C42.8721 30.5609 42.7731 30.5414 42.6732 30.5418V30.5418Z" fill="#E31B4B"/>
<path color="" d="M51.2599 30.3328C50.0014 30.3335 48.7946 30.8335 47.9045 31.7232C47.0144 32.6128 46.5136 33.8193 46.5122 35.0778V37.5948C46.5122 39.4176 48.0065 40.9145 49.2835 41.6431C49.5924 41.8171 49.8449 42.0761 50.0111 42.3893C50.1774 42.7025 50.2503 43.0568 50.2214 43.4102L49.1325 57.2507C49.1185 57.5752 49.1697 57.8992 49.283 58.2036C49.3963 58.5081 49.5694 58.7867 49.7922 59.0231C49.9788 59.226 50.2054 59.388 50.4579 59.4988C50.7103 59.6096 50.9829 59.6668 51.2586 59.6668C51.5343 59.6668 51.8069 59.6096 52.0593 59.4988C52.3118 59.388 52.5384 59.226 52.725 59.0231C52.9495 58.7836 53.1236 58.5014 53.2369 58.1933C53.3503 57.8851 53.4005 57.5574 53.3847 57.2295L52.2958 43.4102C52.2684 43.0581 52.3422 42.7055 52.5083 42.3939C52.6744 42.0822 52.9261 41.8245 53.2337 41.651C54.5107 40.9224 56.005 39.4255 56.005 37.6027V35.0858C56.006 34.462 55.8841 33.8441 55.6461 33.2675C55.4081 32.6909 55.0587 32.1668 54.618 31.7254C54.1773 31.2839 53.6538 30.9337 53.0776 30.6947C52.5014 30.4558 51.8837 30.3328 51.2599 30.3328V30.3328ZM53.8855 35.6077C53.7449 35.6077 53.6102 35.5519 53.5108 35.4525C53.4114 35.3532 53.3556 35.2184 53.3556 35.0778C53.3549 34.5222 53.1339 33.9896 52.741 33.5967C52.3482 33.2039 51.8155 32.9829 51.2599 32.9822C51.1194 32.9822 50.9846 32.9263 50.8852 32.827C50.7859 32.7276 50.73 32.5928 50.73 32.4523C50.73 32.3118 50.7859 32.177 50.8852 32.0776C50.9846 31.9782 51.1194 31.9224 51.2599 31.9224C52.0964 31.9238 52.8981 32.2567 53.4896 32.8482C54.0811 33.4396 54.414 34.2414 54.4154 35.0778C54.4154 35.2184 54.3595 35.3532 54.2602 35.4525C54.1608 35.5519 54.026 35.6077 53.8855 35.6077Z" fill="#E31B4B"/>
</svg>
