<svg width="90" height="90" viewBox="0 0 90 90" fill="none" xmlns="http://www.w3.org/2000/svg">
<rect x="1" y="1" width="88" height="88" rx="44" stroke="#26AD5C" stroke-width="2"/>
<path color="" d="M40.0628 58.6716C40.658 59.1942 41.2723 59.7333 41.9042 60.2922C41.9085 60.296 41.9129 60.2999 41.9173 60.3037L44.0196 62.1196C44.3012 62.3629 44.6508 62.4845 45.0004 62.4845C45.35 62.4845 45.6996 62.3628 45.9813 62.1196L48.0831 60.3037C48.0875 60.2999 48.0918 60.2961 48.0961 60.2923C52.2577 56.6119 55.3779 53.7943 57.6352 51.0463C60.2718 47.8369 61.4999 44.9349 61.4999 41.9139C61.4999 36.4482 57.2185 32.1667 51.7529 32.1667C49.2964 32.1667 46.8692 33.0917 45.0004 34.6952C43.1311 33.0916 40.7039 32.1667 38.2473 32.1667C32.7815 32.1666 28.5 36.4482 28.5 41.9138C28.5 48.5207 33.1 52.559 40.0628 58.6716ZM38.9986 44.3251H42.9994V40.3242H47.0003V44.3251H51.0012V48.326H47.0003V52.3267H42.9994V48.326H38.9986V44.3251Z" fill="#26AD5C"/>
</svg>
