<svg width="90" height="90" viewBox="0 0 90 90" fill="none" xmlns="http://www.w3.org/2000/svg">
<rect x="1" y="1" width="88" height="88" rx="44" stroke="#CE2BBE" stroke-width="2"/>
<path color="" d="M40.2148 34.7994V49.4901C39.36 48.7276 38.2335 48.2633 37.0005 48.2633C34.335 48.2633 32.1664 50.4319 32.1664 53.0974C32.1664 55.763 34.335 57.9315 37.0005 57.9315C39.6627 57.9315 41.829 55.7684 41.8345 53.1075H41.8346V41.3011L56.2135 37.6562V45.5904C55.3587 44.8278 54.2322 44.3635 52.9993 44.3635C50.3337 44.3635 48.1652 46.5321 48.1652 49.1976C48.1652 51.8631 50.3337 54.0317 52.9993 54.0317C55.6648 54.0317 57.8333 51.8631 57.8333 49.1976V30.3333L40.2148 34.7994Z" fill="#CE2BBE"/>
</svg>
