<svg width="90" height="90" viewBox="0 0 90 90" fill="none" xmlns="http://www.w3.org/2000/svg">
<rect x="1" y="1" width="88" height="88" rx="44" stroke="#FF9162" stroke-width="2"/>
<path color="" d="M41.1302 44.1033C41.0021 44.2743 40.8702 44.8161 40.271 44.9301L39.8937 45.0019L40.1733 45.3195C40.5578 45.7563 40.3628 46.2384 40.3659 46.4556C40.5932 46.3882 40.9876 46.0694 41.5091 46.2913L41.8946 46.4556C41.8976 46.2404 41.7033 45.7554 42.0871 45.3195L42.3667 45.0019L41.9894 44.9301C41.3894 44.816 41.2577 44.2736 41.1302 44.1033V44.1033Z" fill="#FF9162"/>
<path color="" d="M60.5332 36.2957C59.6447 36.2957 58.9219 35.5728 58.9219 34.6843C58.9219 34.1504 58.489 33.7175 57.9551 33.7175H53.7044V37.2657C53.7044 37.7996 53.2715 38.2325 52.7376 38.2325C52.2037 38.2325 51.7708 37.7996 51.7708 37.2657V33.7175H32.0449C31.511 33.7175 31.0781 34.1504 31.0781 34.6843C31.0781 35.5728 30.3553 36.2957 29.4668 36.2957C28.9329 36.2957 28.5 36.7285 28.5 37.2625V52.7376C28.5 53.2716 28.9329 53.7044 29.4668 53.7044C30.3553 53.7044 31.0781 54.4273 31.0781 55.3158C31.0781 55.8497 31.511 56.2826 32.0449 56.2826H51.7708V52.7344C51.7708 52.2005 52.2037 51.7676 52.7376 51.7676C53.2715 51.7676 53.7044 52.2005 53.7044 52.7344V56.2826H57.9551C58.489 56.2826 58.9219 55.8497 58.9219 55.3158C58.9219 54.4273 59.6447 53.7044 60.5332 53.7044C61.0671 53.7044 61.5 53.2716 61.5 52.7376V37.2625C61.5 36.7285 61.0671 36.2957 60.5332 36.2957V36.2957ZM36.2956 37.5879H45.9636C46.4975 37.5879 46.9304 38.0208 46.9304 38.5547C46.9304 39.0887 46.4975 39.5215 45.9636 39.5215H36.2956C35.7617 39.5215 35.3288 39.0887 35.3288 38.5547C35.3288 38.0208 35.7617 37.5879 36.2956 37.5879ZM43.9956 47.8875C44.0757 48.6214 43.3347 49.1713 42.6556 48.882L41.1296 48.2321L39.6035 48.882C38.9244 49.1713 38.1834 48.6212 38.2636 47.8875L38.4396 46.2776L37.3218 45.0082C36.8279 44.4472 37.1319 43.5593 37.8668 43.4195L39.4672 43.1151L40.2867 41.6564C40.6548 41.0014 41.6023 40.9976 41.9724 41.6564L42.792 43.1151L44.3923 43.4195C45.1267 43.5592 45.4315 44.4468 44.9373 45.0081L43.8195 46.2776L43.9956 47.8875ZM45.97 52.4122H36.3021C35.7681 52.4122 35.3353 51.9793 35.3353 51.4454C35.3353 50.9114 35.7681 50.4786 36.3021 50.4786H45.97C46.5039 50.4786 46.9368 50.9114 46.9368 51.4454C46.9368 51.9793 46.5039 52.4122 45.97 52.4122ZM53.7044 48.8737C53.7044 49.4076 53.2715 49.8405 52.7376 49.8405C52.2037 49.8405 51.7708 49.4076 51.7708 48.8737V46.9401C51.7708 46.4062 52.2037 45.9733 52.7376 45.9733C53.2715 45.9733 53.7044 46.4062 53.7044 46.9401V48.8737ZM53.7044 43.0697C53.7044 43.6036 53.2715 44.0365 52.7376 44.0365C52.2037 44.0365 51.7708 43.6036 51.7708 43.0697V41.1361C51.7708 40.6022 52.2037 40.1693 52.7376 40.1693C53.2715 40.1693 53.7044 40.6022 53.7044 41.1361V43.0697Z" fill="#FF9162"/>
</svg>
